<?xml version="1.0" encoding="UTF-8" standalone="no"?>
<!-- Created with Inkscape (http://www.inkscape.org/) -->

<svg
   xmlns:dc="http://purl.org/dc/elements/1.1/"
   xmlns:cc="http://creativecommons.org/ns#"
   xmlns:rdf="http://www.w3.org/1999/02/22-rdf-syntax-ns#"
   xmlns:svg="http://www.w3.org/2000/svg"
   xmlns="http://www.w3.org/2000/svg"
   xmlns:sodipodi="http://sodipodi.sourceforge.net/DTD/sodipodi-0.dtd"
   xmlns:inkscape="http://www.inkscape.org/namespaces/inkscape"
   version="1.1"
   width="24"
   height="24"
   id="svg4619"
   sodipodi:docname="ferry-24.svg"
   inkscape:version="0.92.3 (2405546, 2018-03-11)">
  <sodipodi:namedview
     pagecolor="#ffffff"
     bordercolor="#666666"
     borderopacity="1"
     objecttolerance="10"
     gridtolerance="10"
     guidetolerance="10"
     inkscape:pageopacity="0"
     inkscape:pageshadow="2"
     inkscape:window-width="1440"
     inkscape:window-height="844"
     id="namedview10"
     showgrid="false"
     inkscape:zoom="16.076158"
     inkscape:cx="2.8968443"
     inkscape:cy="9"
     inkscape:window-x="0"
     inkscape:window-y="27"
     inkscape:window-maximized="1"
     inkscape:current-layer="svg4619" />
  <defs
     id="defs4621" />
  <metadata
     id="metadata4624">
    <rdf:RDF>
      <cc:Work
         rdf:about="">
        <dc:format>image/svg+xml</dc:format>
        <dc:type
           rdf:resource="http://purl.org/dc/dcmitype/StillImage" />
        <dc:title />
      </cc:Work>
    </rdf:RDF>
  </metadata>
  <g
     transform="matrix(1.1510497,0,0,1.2571434,1.2276878,-1298.7392)"
     id="layer1">
    <g
       transform="translate(-108,-304)"
       id="ferry-18"
       style="display:inline">
      <path
         d="m 116,1339.3622 c -0.5,0 -1,0.5 -1,1 h -1.17646 c -0.45624,0 -0.85294,0.5438 -0.85294,1 l 0.0294,3.5 -2,1 2,3.5 v 1.5 l 2.5,1 2,-1 2,1 2.5,-1 v -1.5 l 2,-3.5 -2,-1 v -3.5 c 0,-0.4562 -0.36729,-1 -0.82353,-1 H 120 c 0,-0.5 -0.5,-1 -1,-1 z m -2,2 h 7 v 3.0441 l -3.5,-2.0441 -3.5,2.0441 z m -1,11 -2,1 v 1.5 l 2,-1 2.5,1 2,-1 2,1 2.5,-0.8534 2,0.8534 v -1.5 l -2,-1 -2.5,1 -2,-1 -2,1 z"
         inkscape:connector-curvature="0"
         id="path7245"
         style="color:#000000;display:inline;overflow:visible;visibility:visible;opacity:0.3;fill:#ffffff;fill-opacity:1;fill-rule:nonzero;stroke:#ffffff;stroke-width:2;stroke-linecap:butt;stroke-linejoin:round;stroke-miterlimit:4;stroke-dasharray:none;stroke-dashoffset:0;stroke-opacity:1;marker:none;enable-background:accumulate" />
      <path
         d="m 116,1339.3622 c -0.5,0 -1,0.5 -1,1 h -1.17646 c -0.45624,0 -0.85294,0.5438 -0.85294,1 l 0.0294,3.5 -2,1 2,3.5 v 1.5 l 2.5,1 2,-1 2,1 2.5,-1 v -1.5 l 2,-3.5 -2,-1 v -3.5 c 0,-0.4562 -0.36729,-1 -0.82353,-1 H 120 c 0,-0.5 -0.5,-1 -1,-1 z m -2,2 h 7 v 3.0441 l -3.5,-2.0441 -3.5,2.0441 z m -1,11 -2,1 v 1.5 l 2,-1 2.5,1 2,-1 2,1 2.5,-0.8534 2,0.8534 v -1.5 l -2,-1 -2.5,1 -2,-1 -2,1 z"
         inkscape:connector-curvature="0"
         id="path30964"
         style="color:#000000;display:inline;overflow:visible;visibility:visible;fill:#444444;fill-opacity:1;fill-rule:nonzero;stroke:none;stroke-width:2;marker:none;enable-background:accumulate" />
    </g>
  </g>
  <rect
     width="18"
     height="18"
     x="0"
     y="6"
     id="canvas"
     style="visibility:hidden;fill:none;stroke:none" />
</svg>
