<?xml version="1.0" encoding="UTF-8" standalone="no"?>
<!-- Created with Inkscape (http://www.inkscape.org/) -->

<svg
   xmlns:dc="http://purl.org/dc/elements/1.1/"
   xmlns:cc="http://creativecommons.org/ns#"
   xmlns:rdf="http://www.w3.org/1999/02/22-rdf-syntax-ns#"
   xmlns:svg="http://www.w3.org/2000/svg"
   xmlns="http://www.w3.org/2000/svg"
   xmlns:sodipodi="http://sodipodi.sourceforge.net/DTD/sodipodi-0.dtd"
   xmlns:inkscape="http://www.inkscape.org/namespaces/inkscape"
   width="32mm"
   height="32mm"
   viewBox="0 0 32 32"
   version="1.1"
   id="svg8"
   inkscape:version="0.92.5 (2060ec1f9f, 2020-04-08)"
   sodipodi:docname="gtfs.svg">
  <defs
     id="defs2" />
  <sodipodi:namedview
     id="base"
     pagecolor="#ffffff"
     bordercolor="#666666"
     borderopacity="1.0"
     inkscape:pageopacity="0.0"
     inkscape:pageshadow="2"
     inkscape:zoom="2.990248"
     inkscape:cx="45.637297"
     inkscape:cy="55.143618"
     inkscape:document-units="mm"
     inkscape:current-layer="layer1"
     showgrid="false"
     fit-margin-top="0"
     fit-margin-left="0"
     fit-margin-right="0"
     fit-margin-bottom="0"
     inkscape:window-width="1440"
     inkscape:window-height="822"
     inkscape:window-x="0"
     inkscape:window-y="27"
     inkscape:window-maximized="1" />
  <metadata
     id="metadata5">
    <rdf:RDF>
      <cc:Work
         rdf:about="">
        <dc:format>image/svg+xml</dc:format>
        <dc:type
           rdf:resource="http://purl.org/dc/dcmitype/StillImage" />
        <dc:title></dc:title>
      </cc:Work>
    </rdf:RDF>
  </metadata>
  <g
     inkscape:label="Ebene 1"
     inkscape:groupmode="layer"
     id="layer1"
     transform="translate(-8.3803139,-103.10916)">
    <path
       inkscape:connector-curvature="0"
       id="path142"
       d="M 8.8718903,130.20415 C 8.7180179,130.05029 8.716625,129.91966 8.7556348,119.29999 l 0.039483,-10.74843 0.2215598,-0.19057 0.2215605,-0.19056 h 15.1631499 15.16315 l 0.230823,0.23082 0.230824,0.23082 v 10.69221 10.69221 l -0.182763,0.17169 -0.182763,0.1717 H 24.344144 c -15.1389389,0 -15.3183204,-0.002 -15.4722537,-0.15573 z m 7.3855177,-2.52911 v -1.50036 H 13.098767 9.9401255 v 1.50036 1.50035 h 3.1586415 3.158641 z m 7.58074,0 v -1.50036 h -3.198125 -3.198124 v 1.50036 1.50035 h 3.198124 3.198125 z m 7.501773,0 v -1.50036 H 28.18128 25.022638 v 1.50036 1.50035 h 3.158642 3.158641 z m 7.501774,0 v -1.50036 h -3.158642 -3.158641 v 1.50036 1.50035 h 3.158641 3.158642 z m -24.367589,-2.11557 0.388264,-0.17722 0.169587,0.15932 c 0.152107,0.14289 0.275293,0.15932 1.195006,0.15932 1.130468,0 1.214936,-0.0313 1.214936,-0.45011 v -0.26059 h 1.026558 1.026559 v 0.26059 c 0,0.43254 0.0601,0.45011 1.539838,0.45011 1.479741,0 1.539837,-0.0176 1.539837,-0.45011 v -0.26059 h 1.184491 1.18449 v 0.26059 c 0,0.43254 0.0601,0.45011 1.539838,0.45011 1.479741,0 1.539838,-0.0176 1.539838,-0.45011 v -0.26059 h 1.612345 c 0.88679,0 1.668554,-0.0216 1.737253,-0.0479 0.09404,-0.0361 0.124907,0.002 0.124907,0.15611 0,0.48608 0.818443,0.64238 3.356057,0.64088 1.779436,-10e-4 1.922122,-0.0119 2.336233,-0.17847 0.242576,-0.0976 0.524165,-0.26585 0.625751,-0.37398 0.151973,-0.16177 0.259228,-0.19661 0.605252,-0.19661 h 0.420549 v -1.57932 -1.57932 h -0.195388 c -0.141318,0 -0.231102,-0.071 -0.32445,-0.25664 -0.07099,-0.14115 -0.274737,-0.40766 -0.452783,-0.59224 l -0.323719,-0.33561 h 0.64817 0.64817 v -1.57932 -1.57932 h -0.276381 c -0.241477,0 -0.276382,-0.0247 -0.276382,-0.1956 0,-0.27967 -0.250255,-0.41011 -1.056657,-0.55073 -0.834253,-0.14549 -3.378337,-0.16753 -4.013024,-0.0348 -0.584284,0.12221 -1.135591,0.43888 -1.407294,0.80834 l -0.23066,0.31365 0.04579,-0.38761 c 0.03913,-0.33119 0.0209,-0.41009 -0.125253,-0.54216 -0.160049,-0.14462 -0.324877,-0.15666 -2.564425,-0.18727 -2.674865,-0.0366 -2.75158,-0.0258 -3.308244,0.46421 -0.194909,0.17156 -0.42888,0.31194 -0.519935,0.31194 -0.139634,0 -0.165557,-0.048 -0.165557,-0.3062 0,-0.16841 -0.04849,-0.34643 -0.107747,-0.39561 -0.07765,-0.0644 -1.141486,-0.0837 -3.807795,-0.0689 l -3.700045,0.0205 -0.08708,0.17469 c -0.07523,0.15092 -0.102417,0.15946 -0.199733,0.0627 -0.333776,-0.33177 -3.754411,-0.49906 -4.77404,-0.23348 -0.548289,0.14281 -1.089653,0.3989 -1.274085,0.60269 -0.09657,0.10671 -0.245204,0.14355 -0.579243,0.14355 H 9.9645662 l -0.066146,1.44112 c -0.084058,1.83139 -0.084187,2.73833 -6.267e-4,4.58003 l 0.067154,1.48062 h 0.3501385 c 0.285276,0 0.409301,0.0506 0.669503,0.27336 0.51373,0.43974 0.820732,0.51399 2.03524,0.49223 0.911044,-0.0163 1.122493,-0.0449 1.454305,-0.19631 z m -2.55983,-0.32879 c -0.848318,-0.29138 -1.347664,-1.07142 -1.58527,-2.47638 -0.145802,-0.86214 -0.05641,-3.05006 0.150761,-3.68991 0.352022,-1.08724 0.922274,-1.61206 2.065706,-1.90116 0.59926,-0.15151 0.805282,-0.16451 1.934668,-0.12208 0.695193,0.0261 1.477196,0.0952 1.737784,0.15359 l 0.473797,0.10609 -0.01536,0.46888 c -0.0084,0.25789 -0.0368,0.61672 -0.063,0.79741 l -0.04764,0.32851 -1.555803,0.0279 c -1.761967,0.0316 -1.940959,0.0801 -2.196626,0.59475 -0.129198,0.26006 -0.148838,0.48716 -0.148838,1.72098 0,1.28608 0.01529,1.4477 0.160619,1.69777 0.243006,0.41815 0.602297,0.57227 1.202426,0.51577 0.27193,-0.0256 0.582859,-0.0802 0.690953,-0.12127 l 0.196534,-0.0747 v -1.34438 -1.34438 h 1.066042 1.066041 v 2.36898 2.36899 h -0.823822 c -0.899907,0 -0.839373,0.0336 -0.952182,-0.52797 l -0.05054,-0.25158 -0.482526,0.31188 c -0.265389,0.17152 -0.660397,0.36469 -0.877795,0.42925 -0.545486,0.16199 -1.414794,0.14548 -1.945926,-0.037 z m 21.376694,0.0751 c -0.251578,-0.0322 -0.668858,-0.10341 -0.927286,-0.15825 l -0.469872,-0.0997 0.04255,-0.44339 c 0.0234,-0.24386 0.0605,-0.59198 0.08243,-0.7736 l 0.03988,-0.33022 1.760761,-0.0251 c 1.347014,-0.0192 1.791399,-0.0506 1.891154,-0.1335 0.16247,-0.13504 0.17074,-0.59018 0.01358,-0.74734 -0.06425,-0.0643 -0.552851,-0.28525 -1.085783,-0.49113 -1.815418,-0.70129 -2.280944,-1.00848 -2.595207,-1.71252 -0.266403,-0.59681 -0.26736,-1.74686 -0.0019,-2.29273 0.373153,-0.76736 0.964468,-1.00301 2.666032,-1.06248 1.155316,-0.0404 2.045689,0.0319 2.856336,0.23196 l 0.340749,0.0841 -0.04943,0.52235 c -0.02719,0.28729 -0.06731,0.61756 -0.08916,0.73394 l -0.03973,0.21159 -1.680776,0.0253 c -1.278895,0.0192 -1.711954,0.0512 -1.811167,0.13368 -0.173338,0.14407 -0.167173,0.58403 0.01044,0.74477 0.07745,0.0701 0.60493,0.30303 1.172168,0.51762 1.709504,0.64675 2.085448,0.88215 2.444898,1.53089 0.21612,0.39006 0.229575,0.46696 0.224585,1.28354 -0.007,1.14366 -0.22597,1.62415 -0.89876,1.97206 -0.620968,0.32112 -2.508176,0.45586 -3.896479,0.2782 z m -13.322158,-3.23733 v -3.23761 h -1.184491 -1.18449 v -0.86863 -0.86862 h 3.474506 3.474505 v 0.86862 0.86863 h -1.18449 -1.184491 v 3.23761 3.23761 h -1.105524 -1.105525 z m 5.384222,-0.21716 c 0.02441,-3.38003 0.02869,-3.46176 0.197973,-3.7781 0.231422,-0.43248 0.658561,-0.79468 1.069657,-0.90702 0.354749,-0.0969 4.032333,-0.0545 4.383652,0.0506 0.198017,0.0592 0.21919,0.24607 0.127403,1.12425 l -0.05027,0.48096 -1.614517,0.0242 c -1.924292,0.0288 -1.838415,-0.0173 -1.838415,0.98685 v 0.65612 h 1.500355 1.500355 v 0.75017 0.75018 h -1.500355 -1.500355 v 1.65829 1.65829 H 26.4783 25.328083 Z m -9.095626,-7.0872 v -1.53984 H 13.098767 9.9401255 v 1.53984 1.53984 h 3.1586415 3.158641 z m 7.58074,0 v -1.53984 h -3.198125 -3.198124 v 1.53984 1.53984 h 3.198124 3.198125 z m 7.501773,0 v -1.53984 H 28.18128 25.022638 v 1.53984 1.53984 h 3.158642 3.158641 z m 7.501774,0 v -1.53984 h -3.158642 -3.158641 v 1.53984 1.53984 h 3.158641 3.158642 z"
       style="fill:#b9b9b9;fill-opacity:1;stroke-width:0.07896603" />
    <path
       inkscape:connector-curvature="0"
       id="path140"
       d="M 8.8718903,130.20415 C 8.7180179,130.05029 8.716625,129.91966 8.7556348,119.29999 l 0.039483,-10.74843 0.2215598,-0.19057 0.2215605,-0.19056 h 15.1631499 15.16315 l 0.230823,0.23082 0.230824,0.23082 v 10.69221 10.69221 l -0.182763,0.17169 -0.182763,0.1717 H 24.344144 c -15.1389389,0 -15.3183204,-0.002 -15.4722537,-0.15573 z m 7.3855177,-2.52911 v -1.50036 H 13.098767 9.9401255 v 1.50036 1.50035 h 3.1586415 3.158641 z m 7.58074,0 v -1.50036 h -3.198125 -3.198124 v 1.50036 1.50035 h 3.198124 3.198125 z m 7.501773,0 v -1.50036 H 28.18128 25.022638 v 1.50036 1.50035 h 3.158642 3.158641 z m 7.501774,0 v -1.50036 h -3.158642 -3.158641 v 1.50036 1.50035 h 3.158641 3.158642 z m -24.367589,-2.11557 0.388264,-0.17722 0.169587,0.15932 c 0.152107,0.14289 0.275293,0.15932 1.195006,0.15932 1.130468,0 1.214936,-0.0313 1.214936,-0.45011 v -0.26059 h 1.026558 1.026559 v 0.26059 c 0,0.43254 0.0601,0.45011 1.539838,0.45011 1.479741,0 1.539837,-0.0176 1.539837,-0.45011 v -0.26059 h 1.184491 1.18449 v 0.26059 c 0,0.43254 0.0601,0.45011 1.539838,0.45011 1.479741,0 1.539838,-0.0176 1.539838,-0.45011 v -0.26059 h 1.612345 c 0.88679,0 1.668554,-0.0216 1.737253,-0.0479 0.09404,-0.0361 0.124907,0.002 0.124907,0.15611 0,0.48608 0.818443,0.64238 3.356057,0.64088 1.779436,-10e-4 1.922122,-0.0119 2.336233,-0.17847 0.242576,-0.0976 0.524165,-0.26585 0.625751,-0.37398 0.151973,-0.16177 0.259228,-0.19661 0.605252,-0.19661 h 0.420549 v -1.57932 -1.57932 h -0.195388 c -0.141318,0 -0.231102,-0.071 -0.32445,-0.25664 -0.07099,-0.14115 -0.274737,-0.40766 -0.452783,-0.59224 l -0.323719,-0.33561 h 0.64817 0.64817 v -1.57932 -1.57932 h -0.276381 c -0.241477,0 -0.276382,-0.0247 -0.276382,-0.1956 0,-0.27967 -0.250255,-0.41011 -1.056657,-0.55073 -0.834253,-0.14549 -3.378337,-0.16753 -4.013024,-0.0348 -0.584284,0.12221 -1.135591,0.43888 -1.407294,0.80834 l -0.23066,0.31365 0.04579,-0.38761 c 0.03913,-0.33119 0.0209,-0.41009 -0.125253,-0.54216 -0.160049,-0.14462 -0.324877,-0.15666 -2.564425,-0.18727 -2.674865,-0.0366 -2.75158,-0.0258 -3.308244,0.46421 -0.194909,0.17156 -0.42888,0.31194 -0.519935,0.31194 -0.139634,0 -0.165557,-0.048 -0.165557,-0.3062 0,-0.16841 -0.04849,-0.34643 -0.107747,-0.39561 -0.07765,-0.0644 -1.141486,-0.0837 -3.807795,-0.0689 l -3.700045,0.0205 -0.08708,0.17469 c -0.07523,0.15092 -0.102417,0.15946 -0.199733,0.0627 -0.333776,-0.33177 -3.754411,-0.49906 -4.77404,-0.23348 -0.548289,0.14281 -1.089653,0.3989 -1.274085,0.60269 -0.09657,0.10671 -0.245204,0.14355 -0.579243,0.14355 H 9.9645662 l -0.066146,1.44112 c -0.084058,1.83139 -0.084187,2.73833 -6.267e-4,4.58003 l 0.067154,1.48062 h 0.3501385 c 0.285276,0 0.409301,0.0506 0.669503,0.27336 0.51373,0.43974 0.820732,0.51399 2.03524,0.49223 0.911044,-0.0163 1.122493,-0.0449 1.454305,-0.19631 z m -2.48804,-0.29208 c -0.527073,-0.1697 -1.03109,-0.64918 -1.290858,-1.22802 -0.302015,-0.67298 -0.433229,-1.50674 -0.436463,-2.77338 -0.0068,-2.65124 0.644623,-3.75818 2.434842,-4.13764 0.886017,-0.1878 2.809928,-0.12236 3.7363,0.12709 l 0.318187,0.0857 -0.05107,0.44875 c -0.02809,0.2468 -0.07106,0.59713 -0.09549,0.77851 l -0.04442,0.32978 -1.551487,0.0256 c -1.390728,0.0229 -1.580126,0.0422 -1.827869,0.18656 -0.42298,0.24637 -0.545058,0.69672 -0.549306,2.02643 -0.0043,1.33171 0.08197,1.78035 0.400894,2.08578 0.222012,0.21262 0.278496,0.22735 0.844637,0.2202 0.333693,-0.004 0.704435,-0.0478 0.823871,-0.0968 l 0.217157,-0.0891 v -1.34438 -1.34438 h 1.066041 1.066042 v 2.36898 2.36899 h -0.81772 -0.81772 l -0.110131,-0.39938 -0.110131,-0.39937 -0.276381,0.21074 c -0.552215,0.42107 -1.090674,0.60594 -1.855702,0.63711 -0.482784,0.0197 -0.826951,-0.008 -1.073218,-0.0878 z m 21.288523,0.0322 c -0.304019,-0.0411 -0.730436,-0.11869 -0.947592,-0.17236 l -0.39483,-0.0976 0.02182,-0.39483 c 0.01201,-0.21715 0.04173,-0.56175 0.06606,-0.76577 l 0.04424,-0.37094 1.767235,-0.0239 c 1.533256,-0.0207 1.784881,-0.0416 1.900499,-0.15731 0.172294,-0.1725 0.160991,-0.62031 -0.01898,-0.75191 -0.07563,-0.0553 -0.601926,-0.2829 -1.169538,-0.50577 -1.761567,-0.69169 -2.125189,-0.93167 -2.465471,-1.62718 -0.185847,-0.37986 -0.217976,-0.54462 -0.218787,-1.12194 -0.002,-1.44923 0.472021,-1.99562 1.928615,-2.22292 0.811202,-0.12659 2.791751,-0.0481 3.513989,0.13934 l 0.552762,0.14342 -0.01979,0.39483 c -0.01088,0.21716 -0.03971,0.54585 -0.06406,0.73044 l -0.04427,0.3356 h -1.562699 c -1.690747,0 -2.053833,0.0602 -2.069418,0.34333 -0.02855,0.51866 0.08673,0.6093 1.412591,1.11068 0.614715,0.23245 1.273013,0.51368 1.462882,0.62496 0.843401,0.49426 1.208552,1.2431 1.144628,2.34737 -0.06228,1.07579 -0.474569,1.65738 -1.378747,1.94489 -0.463663,0.14745 -2.639132,0.20876 -3.461141,0.0975 z m -13.305777,-3.23117 v -3.23761 h -1.184491 -1.18449 v -0.86863 -0.86862 h 3.474506 3.474505 v 0.86862 0.86863 h -1.18449 -1.184491 v 3.23761 3.23761 h -1.105524 -1.105525 z m 5.448657,-0.24005 c 0,-3.30474 0.0077,-3.49282 0.15564,-3.78273 0.192934,-0.37818 0.625851,-0.74304 1.022713,-0.86195 0.513863,-0.15395 4.39264,-0.0731 4.560817,0.0951 0.02249,0.0225 0.01541,0.3809 -0.01575,0.79646 l -0.05665,0.75557 h -1.56993 c -1.936985,0 -1.885795,-0.0268 -1.885795,0.98707 v 0.67122 h 1.500355 1.500355 v 0.75017 0.75018 h -1.500355 -1.500355 v 1.65829 1.65829 H 26.52299 25.417465 Z m -9.160061,-7.06431 v -1.53984 H 13.098767 9.9401255 v 1.53984 1.53984 h 3.1586415 3.158641 z m 7.58074,0 v -1.53984 h -3.198125 -3.198124 v 1.53984 1.53984 h 3.198124 3.198125 z m 7.501773,0 v -1.53984 H 28.18128 25.022638 v 1.53984 1.53984 h 3.158642 3.158641 z m 7.501774,0 v -1.53984 h -3.158642 -3.158641 v 1.53984 1.53984 h 3.158641 3.158642 z"
       style="fill:#a3a3a3;fill-opacity:1;stroke-width:0.07896603" />
    <path
       inkscape:connector-curvature="0"
       id="path138"
       d="m 8.8863229,130.21547 c -0.1202455,-0.13287 -0.1306881,-0.99448 -0.1306881,-10.78278 0,-11.56427 -0.023364,-10.9604 0.4321071,-11.16793 0.3002691,-0.13681 30.1060671,-0.13681 30.4063361,0 0.455403,0.2075 0.432107,-0.39192 0.432107,11.11851 v 10.58896 l -0.193826,0.19382 -0.193825,0.19383 H 24.327772 c -14.7325307,0 -15.3156972,-0.005 -15.4414491,-0.14441 z m 7.3710851,-2.54043 v -1.50036 H 13.098767 9.9401255 v 1.50036 1.50035 h 3.1586415 3.158641 z m 7.58074,0 v -1.50036 h -3.198125 -3.198124 v 1.50036 1.50035 h 3.198124 3.198125 z m 7.501773,0 v -1.50036 H 28.18128 25.022638 v 1.50036 1.50035 h 3.158642 3.158641 z m 7.501774,0 v -1.50036 h -3.158642 -3.158641 v 1.50036 1.50035 h 3.158641 3.158642 z m -24.367589,-2.11557 0.388264,-0.17722 0.169587,0.15932 c 0.152107,0.14289 0.275293,0.15932 1.195006,0.15932 1.130468,0 1.214936,-0.0313 1.214936,-0.45011 v -0.26059 h 1.026558 1.026559 v 0.26059 c 0,0.43254 0.0601,0.45011 1.539838,0.45011 1.479741,0 1.539837,-0.0176 1.539837,-0.45011 v -0.26059 h 1.184491 1.18449 v 0.26059 c 0,0.43254 0.0601,0.45011 1.539838,0.45011 1.479741,0 1.539838,-0.0176 1.539838,-0.45011 v -0.26059 H 29.7606 c 1.677857,0 1.737253,0.005 1.737253,0.15611 0,0.43369 0.909568,0.59439 3.356057,0.59295 1.779436,-0.001 1.922122,-0.0119 2.336233,-0.17847 0.242576,-0.0976 0.524165,-0.26585 0.625751,-0.37398 0.151973,-0.16177 0.259228,-0.19661 0.605252,-0.19661 h 0.420549 v -1.57932 -1.57932 h -0.195388 c -0.141318,0 -0.231102,-0.071 -0.32445,-0.25664 -0.07099,-0.14115 -0.274737,-0.40766 -0.452783,-0.59224 l -0.323719,-0.33561 h 0.64817 0.64817 v -1.57932 -1.57932 h -0.276381 c -0.241477,0 -0.276382,-0.0247 -0.276382,-0.1956 0,-0.27967 -0.250255,-0.41011 -1.056657,-0.55073 -0.834253,-0.14549 -3.378337,-0.16753 -4.013024,-0.0348 -0.584284,0.12221 -1.135591,0.43888 -1.407294,0.80834 l -0.23066,0.31365 0.04579,-0.38761 c 0.03913,-0.33119 0.0209,-0.41009 -0.125253,-0.54216 -0.160049,-0.14462 -0.324877,-0.15666 -2.564425,-0.18727 -2.674865,-0.0366 -2.75158,-0.0258 -3.308244,0.46421 -0.194909,0.17156 -0.42888,0.31194 -0.519935,0.31194 -0.139634,0 -0.165557,-0.048 -0.165557,-0.3062 0,-0.16841 -0.04849,-0.34643 -0.107747,-0.39561 -0.07765,-0.0644 -1.141486,-0.0837 -3.807795,-0.0689 l -3.700045,0.0205 -0.08708,0.17469 c -0.07523,0.15092 -0.102417,0.15946 -0.199733,0.0627 -0.333776,-0.33177 -3.754411,-0.49906 -4.77404,-0.23348 -0.548289,0.14281 -1.089653,0.3989 -1.274085,0.60269 -0.09657,0.10671 -0.245204,0.14355 -0.579243,0.14355 H 9.9645662 l -0.066146,1.44112 c -0.084058,1.83139 -0.084187,2.73833 -6.267e-4,4.58003 l 0.067154,1.48062 h 0.3501385 c 0.285276,0 0.409301,0.0506 0.669503,0.27336 0.51373,0.43974 0.820732,0.51399 2.03524,0.49223 0.911044,-0.0163 1.122493,-0.0449 1.454305,-0.19631 z m -2.283449,-0.24352 c -1.422978,-0.37814 -2.002967,-1.72378 -1.910248,-4.43199 0.05486,-1.60236 0.247288,-2.29433 0.811781,-2.91916 0.379663,-0.42024 0.869131,-0.66767 1.632826,-0.82542 0.944942,-0.19518 2.745306,-0.13658 3.718245,0.12103 0.302536,0.0801 0.304044,0.0825 0.259792,0.41093 -0.02448,0.1817 -0.06779,0.53468 -0.09624,0.78441 l -0.05173,0.45406 -1.471514,0.002 c -2.152453,0.003 -2.318813,0.10801 -2.456395,1.55745 -0.08643,0.91057 0.0062,2.09801 0.194569,2.49504 0.230496,0.48573 0.733873,0.61907 1.645768,0.43593 l 0.447483,-0.0899 v -1.37105 -1.37101 h 1.066041 1.066042 v 2.36898 2.36899 h -0.82821 -0.82821 l -0.04877,-0.30498 c -0.08112,-0.50731 -0.135403,-0.536 -0.484034,-0.25584 -0.45946,0.36924 -1.066498,0.57374 -1.798563,0.60591 -0.347451,0.0153 -0.738332,-4.5e-4 -0.868627,-0.0352 z m 20.915253,-0.056 c -1.234507,-0.16791 -1.190194,-0.13345 -1.122931,-0.87332 0.03102,-0.34121 0.05893,-0.68257 0.06202,-0.75857 0.0052,-0.12702 0.138808,-0.13819 1.652122,-0.13819 0.961768,0 1.746905,-0.035 1.887928,-0.0842 0.447191,-0.15589 0.402941,-0.7389 -0.07311,-0.96324 -0.144758,-0.0682 -0.728427,-0.30497 -1.297041,-0.52611 -1.323198,-0.51461 -1.808349,-0.84732 -2.117772,-1.45235 -0.20903,-0.40872 -0.233157,-0.53219 -0.233157,-1.19317 0,-0.65737 0.02509,-0.78748 0.231515,-1.2006 0.20006,-0.40038 0.29052,-0.4928 0.665827,-0.6802 0.752848,-0.37591 2.446466,-0.48776 3.951157,-0.26093 1.080516,0.16288 1.198498,0.21796 1.149154,0.53647 -0.02191,0.14145 -0.06166,0.46152 -0.08833,0.71125 l -0.04848,0.45405 h -1.607981 c -0.88439,0 -1.694629,0.0329 -1.800531,0.0732 -0.23087,0.0878 -0.325739,0.39704 -0.203855,0.66454 0.09711,0.21314 0.220126,0.27462 1.610097,0.80475 0.521176,0.19877 1.092704,0.44632 1.270062,0.55009 0.42514,0.24876 0.856384,0.73436 0.990144,1.11495 0.138911,0.39525 0.139627,1.63707 0.0012,2.03073 -0.12899,0.36676 -0.501335,0.80586 -0.825488,0.97348 -0.632726,0.3272 -2.506045,0.42766 -4.052516,0.21733 z m -13.137098,-3.19147 v -3.23761 h -1.184491 -1.18449 v -0.86863 -0.86862 h 3.474506 3.474505 v 0.86862 0.86863 h -1.18449 -1.184491 v 3.23761 3.23761 h -1.105524 -1.105525 z m 5.448657,-0.19995 c 0,-3.69652 0.0071,-3.76816 0.41834,-4.20902 0.410878,-0.44048 0.712013,-0.52217 2.029607,-0.55056 1.157871,-0.025 3.199142,0.0778 3.286794,0.16547 0.02225,0.0222 0.01542,0.38155 -0.01518,0.79845 l -0.05564,0.758 h -1.55093 c -1.962364,0 -1.901937,-0.0302 -1.901937,0.95207 v 0.70622 h 1.500355 1.500355 v 0.75017 0.75018 h -1.500355 -1.500355 v 1.65829 1.65829 h -1.105524 -1.105524 z m -9.160061,-7.10441 v -1.53984 H 13.098767 9.9401255 v 1.53984 1.53984 h 3.1586415 3.158641 z m 7.58074,0 v -1.53984 h -3.198125 -3.198124 v 1.53984 1.53984 h 3.198124 3.198125 z m 7.501773,0 v -1.53984 H 28.18128 25.022638 v 1.53984 1.53984 h 3.158642 3.158641 z m 7.501774,0 v -1.53984 h -3.158642 -3.158641 v 1.53984 1.53984 h 3.158641 3.158642 z"
       style="fill:#8c8c8c;fill-opacity:1;stroke-width:0.07896603" />
    <path
       inkscape:connector-curvature="0"
       id="path136"
       d="m 8.8863229,130.21547 c -0.1202455,-0.13287 -0.1306881,-0.99448 -0.1306881,-10.78278 0,-11.56427 -0.023364,-10.9604 0.4321071,-11.16793 0.3002691,-0.13681 30.1060671,-0.13681 30.4063361,0 0.455403,0.2075 0.432107,-0.39192 0.432107,11.11851 v 10.58896 l -0.193826,0.19382 -0.193825,0.19383 H 24.327772 c -14.7325307,0 -15.3156972,-0.005 -15.4414491,-0.14441 z m 7.3710851,-2.54043 v -1.50036 H 13.098767 9.9401255 v 1.50036 1.50035 h 3.1586415 3.158641 z m 7.58074,0 v -1.50036 h -3.198125 -3.198124 v 1.50036 1.50035 h 3.198124 3.198125 z m 7.501773,0 v -1.50036 H 28.18128 25.022638 v 1.50036 1.50035 h 3.158642 3.158641 z m 7.501774,0 v -1.50036 h -3.158642 -3.158641 v 1.50036 1.50035 h 3.158641 3.158642 z m -24.367589,-2.11557 0.388264,-0.17722 0.169587,0.15932 c 0.152107,0.14289 0.275293,0.15932 1.195006,0.15932 1.130468,0 1.214936,-0.0313 1.214936,-0.45011 v -0.26059 h 1.026558 1.026559 v 0.26059 c 0,0.43254 0.0601,0.45011 1.539838,0.45011 1.479741,0 1.539837,-0.0176 1.539837,-0.45011 v -0.26059 h 1.184491 1.18449 v 0.26059 c 0,0.43254 0.0601,0.45011 1.539838,0.45011 1.479741,0 1.539838,-0.0176 1.539838,-0.45011 v -0.26059 H 29.7606 c 1.677857,0 1.737253,0.005 1.737253,0.15611 0,0.43369 0.909568,0.59439 3.356057,0.59295 1.779436,-0.001 1.922122,-0.0119 2.336233,-0.17847 0.242576,-0.0976 0.524165,-0.26585 0.625751,-0.37398 0.151973,-0.16177 0.259228,-0.19661 0.605252,-0.19661 h 0.420549 v -1.57932 -1.57932 h -0.195388 c -0.141318,0 -0.231102,-0.071 -0.32445,-0.25664 -0.07099,-0.14115 -0.274737,-0.40766 -0.452783,-0.59224 l -0.323719,-0.33561 h 0.64817 0.64817 v -1.57932 -1.57932 h -0.276381 c -0.241477,0 -0.276382,-0.0247 -0.276382,-0.1956 0,-0.27967 -0.250255,-0.41011 -1.056657,-0.55073 -0.834253,-0.14549 -3.378337,-0.16753 -4.013024,-0.0348 -0.584284,0.12221 -1.135591,0.43888 -1.407294,0.80834 l -0.23066,0.31365 0.04579,-0.38761 c 0.03913,-0.33119 0.0209,-0.41009 -0.125253,-0.54216 -0.160049,-0.14462 -0.324877,-0.15666 -2.564425,-0.18727 -2.674865,-0.0366 -2.75158,-0.0258 -3.308244,0.46421 -0.194909,0.17156 -0.42888,0.31194 -0.519935,0.31194 -0.139634,0 -0.165557,-0.048 -0.165557,-0.3062 0,-0.16841 -0.04849,-0.34643 -0.107747,-0.39561 -0.07765,-0.0644 -1.141486,-0.0837 -3.807795,-0.0689 l -3.700045,0.0205 -0.08708,0.17469 c -0.07523,0.15092 -0.102417,0.15946 -0.199733,0.0627 -0.333776,-0.33177 -3.754411,-0.49906 -4.77404,-0.23348 -0.548289,0.14281 -1.089653,0.3989 -1.274085,0.60269 -0.09657,0.10671 -0.245204,0.14355 -0.579243,0.14355 H 9.9645662 l -0.066146,1.44112 c -0.084058,1.83139 -0.084187,2.73833 -6.267e-4,4.58003 l 0.067154,1.48062 h 0.3501385 c 0.285276,0 0.409301,0.0506 0.669503,0.27336 0.51373,0.43974 0.820732,0.51399 2.03524,0.49223 0.911044,-0.0163 1.122493,-0.0449 1.454305,-0.19631 z m -2.469169,-0.32555 c -0.547865,-0.18919 -0.783093,-0.36738 -1.098165,-0.83187 -0.43954,-0.64798 -0.646947,-1.65932 -0.648622,-3.16275 -0.0031,-2.74311 0.726611,-3.83256 2.783183,-4.15549 0.871979,-0.13691 3.438197,0.0477 3.6533,0.26275 0.02225,0.0222 -0.0016,0.38309 -0.05311,0.80185 l -0.09357,0.7614 -1.428472,4.4e-4 c -0.78566,2.3e-4 -1.560111,0.037 -1.721002,0.0817 -0.610863,0.16966 -0.798094,0.68628 -0.800169,2.20789 -0.0017,1.24896 0.140741,1.89004 0.467531,2.10416 0.270103,0.17698 0.855734,0.22295 1.400181,0.10993 l 0.448961,-0.0932 v -1.37628 -1.37631 h 1.066041 1.066042 v 2.36898 2.36899 h -0.816578 -0.816577 l -0.09892,-0.44202 -0.09892,-0.44201 -0.209771,0.19255 c -0.750238,0.68863 -2.033764,0.95349 -3.001371,0.61934 z m 21.703965,0.1036 c -0.152009,-0.0178 -0.605077,-0.0887 -1.006817,-0.15765 l -0.730435,-0.12531 7.16e-4,-0.36779 c 4.03e-4,-0.20228 0.02309,-0.55435 0.05048,-0.78236 l 0.0498,-0.41457 h 1.68163 c 0.924897,0 1.771788,-0.0343 1.88198,-0.0762 0.254991,-0.0969 0.348457,-0.43307 0.195971,-0.70474 -0.08729,-0.15552 -0.402141,-0.31463 -1.425437,-0.72036 -1.548302,-0.61389 -1.982555,-0.89679 -2.315747,-1.50864 -0.187819,-0.34489 -0.274518,-1.11078 -0.191833,-1.69464 0.145215,-1.0254 0.589804,-1.45616 1.708783,-1.65565 1.043083,-0.18595 2.814416,-0.12024 3.851828,0.14289 0.440135,0.11164 0.412288,0.0216 0.315777,1.02107 l -0.05106,0.52879 -1.73791,0.024 c -1.631323,0.0225 -1.745079,0.0337 -1.854773,0.18191 -0.14144,0.19114 -0.08389,0.58856 0.105696,0.72983 0.07241,0.054 0.471698,0.22767 0.887304,0.38601 2.019544,0.76945 2.426613,1.02511 2.782408,1.74756 0.154519,0.31376 0.183962,0.49538 0.182274,1.12438 -0.0024,0.87881 -0.110977,1.24852 -0.490083,1.66814 -0.423035,0.46825 -1.036389,0.63274 -2.46913,0.66216 -0.629754,0.0129 -1.269379,0.009 -1.421389,-0.009 z m -13.74009,-3.26907 v -3.23761 h -1.184491 -1.18449 v -0.86863 -0.86862 h 3.474506 3.474505 v 0.86862 0.86863 h -1.18449 -1.184491 v 3.23761 3.23761 h -1.105524 -1.105525 z m 5.448657,-0.19995 c 0,-3.69652 0.0071,-3.76816 0.41834,-4.20902 0.398279,-0.42698 0.723717,-0.52076 1.911158,-0.55076 1.023298,-0.0259 3.325638,0.0861 3.405097,0.16552 0.01905,0.019 0.01056,0.37707 -0.01886,0.79562 l -0.05349,0.76098 h -1.550095 c -1.961414,0 -1.9011,-0.0302 -1.9011,0.95207 v 0.70622 h 1.500355 1.500354 v 0.75017 0.75018 h -1.500354 -1.500355 v 1.65829 1.65829 H 26.522994 25.41747 Z m -9.160061,-7.10441 v -1.53984 H 13.098767 9.9401255 v 1.53984 1.53984 h 3.1586415 3.158641 z m 7.58074,0 v -1.53984 h -3.198125 -3.198124 v 1.53984 1.53984 h 3.198124 3.198125 z m 7.501773,0 v -1.53984 H 28.18128 25.022638 v 1.53984 1.53984 h 3.158642 3.158641 z m 7.501774,0 v -1.53984 h -3.158642 -3.158641 v 1.53984 1.53984 h 3.158641 3.158642 z"
       style="fill:#767676;fill-opacity:1;stroke-width:0.07896603" />
    <path
       inkscape:connector-curvature="0"
       id="path134"
       d="M 8.8863229,130.21547 C 8.7660718,130.0826 8.7556348,129.21797 8.7556348,119.38923 v -10.68184 l 0.2684847,-0.26848 0.2684844,-0.26848 H 24.39091 39.489216 l 0.268485,0.26848 0.268484,0.26848 v 10.63242 10.63242 l -0.193826,0.19382 -0.193825,0.19383 H 24.327772 c -14.7325307,0 -15.3156972,-0.005 -15.4414491,-0.14441 z m 7.3710851,-2.54043 v -1.50036 H 13.098767 9.9401255 v 1.50036 1.50035 h 3.1586415 3.158641 z m 7.58074,0 v -1.50036 h -3.198125 -3.198124 v 1.50036 1.50035 h 3.198124 3.198125 z m 7.501773,0 v -1.50036 H 28.18128 25.022638 v 1.50036 1.50035 h 3.158642 3.158641 z m 7.501774,0 v -1.50036 h -3.158642 -3.158641 v 1.50036 1.50035 h 3.158641 3.158642 z m -24.367589,-2.11557 0.388264,-0.17722 0.169587,0.15932 c 0.152107,0.14289 0.275293,0.15932 1.195006,0.15932 1.130468,0 1.214936,-0.0313 1.214936,-0.45011 v -0.26059 h 1.026558 1.026559 v 0.26059 c 0,0.43254 0.0601,0.45011 1.539838,0.45011 1.479741,0 1.539837,-0.0176 1.539837,-0.45011 v -0.26059 h 1.184491 1.18449 v 0.26059 c 0,0.43254 0.0601,0.45011 1.539838,0.45011 1.479741,0 1.539838,-0.0176 1.539838,-0.45011 v -0.26059 H 29.7606 c 1.677857,0 1.737253,0.005 1.737253,0.15611 0,0.43369 0.909568,0.59439 3.356057,0.59295 1.779436,-0.001 1.922122,-0.0119 2.336233,-0.17847 0.242576,-0.0976 0.524165,-0.26585 0.625751,-0.37398 0.151973,-0.16177 0.259228,-0.19661 0.605252,-0.19661 h 0.420549 v -1.57932 -1.57932 h -0.195388 c -0.141318,0 -0.231102,-0.071 -0.32445,-0.25664 -0.07099,-0.14115 -0.274737,-0.40766 -0.452783,-0.59224 l -0.323719,-0.33561 h 0.64817 0.64817 v -1.57932 -1.57932 h -0.276381 c -0.241477,0 -0.276382,-0.0247 -0.276382,-0.1956 0,-0.27967 -0.250255,-0.41011 -1.056657,-0.55073 -0.834253,-0.14549 -3.378337,-0.16753 -4.013024,-0.0348 -0.584284,0.12221 -1.135591,0.43888 -1.407294,0.80834 l -0.23066,0.31365 0.04579,-0.38761 c 0.03913,-0.33119 0.0209,-0.41009 -0.125253,-0.54216 -0.160049,-0.14462 -0.324877,-0.15666 -2.564425,-0.18727 -2.674865,-0.0366 -2.75158,-0.0258 -3.308244,0.46421 -0.194909,0.17156 -0.42888,0.31194 -0.519935,0.31194 -0.139634,0 -0.165557,-0.048 -0.165557,-0.3062 0,-0.16841 -0.04849,-0.34643 -0.107747,-0.39561 -0.07765,-0.0644 -1.141486,-0.0837 -3.807795,-0.0689 l -3.700045,0.0205 -0.08708,0.17469 c -0.07523,0.15092 -0.102417,0.15946 -0.199733,0.0627 -0.333776,-0.33177 -3.754411,-0.49906 -4.77404,-0.23348 -0.548289,0.14281 -1.089653,0.3989 -1.274085,0.60269 -0.09657,0.10671 -0.245204,0.14355 -0.579243,0.14355 H 9.9645662 l -0.066146,1.44112 c -0.084058,1.83139 -0.084187,2.73833 -6.267e-4,4.58003 l 0.067154,1.48062 h 0.3501385 c 0.285276,0 0.409301,0.0506 0.669503,0.27336 0.51373,0.43974 0.820732,0.51399 2.03524,0.49223 0.911044,-0.0163 1.122493,-0.0449 1.454305,-0.19631 z M 12.1253,125.27711 c -0.8517,-0.24059 -1.346259,-0.81391 -1.643926,-1.90572 -0.146667,-0.53797 -0.173055,-0.84856 -0.177788,-2.0926 -0.006,-1.58236 0.07288,-2.06762 0.460581,-2.83271 0.531798,-1.04945 1.843264,-1.51967 3.907812,-1.40112 0.773823,0.0444 1.942435,0.22138 2.02814,0.30708 0.01376,0.0138 -0.01415,0.3699 -0.06203,0.7914 l -0.08705,0.76637 -1.508977,1.5e-4 c -1.690359,1.6e-4 -1.930285,0.0578 -2.202444,0.52936 -0.227058,0.39341 -0.33816,1.58885 -0.235472,2.53366 0.09626,0.88571 0.234059,1.22286 0.571006,1.39711 0.273275,0.14131 0.896627,0.15542 1.389006,0.0314 l 0.350832,-0.0884 v -1.37253 -1.37253 h 1.066041 1.066042 v 2.36898 2.36899 h -0.816578 -0.816577 l -0.09704,-0.43362 -0.09704,-0.4336 -0.290616,0.23238 c -0.739658,0.59144 -1.938226,0.85043 -2.803922,0.60589 z m 21.386187,0.0235 c -0.304019,-0.035 -0.774854,-0.10545 -1.0463,-0.1565 -0.561862,-0.10567 -0.542601,-0.0568 -0.442075,-1.12123 l 0.05034,-0.53302 h 1.681211 c 0.924665,0 1.771368,-0.0343 1.88156,-0.0762 0.25578,-0.0972 0.348258,-0.43279 0.195134,-0.70801 -0.08927,-0.16046 -0.397801,-0.31602 -1.475319,-0.74383 -1.167335,-0.46348 -1.423541,-0.59679 -1.789115,-0.9309 -0.571699,-0.5225 -0.70391,-0.91396 -0.658948,-1.95106 0.03531,-0.81453 0.12699,-1.08046 0.501644,-1.45511 0.313918,-0.31392 1.102077,-0.53035 2.128426,-0.58446 1.380834,-0.0728 3.33439,0.19625 3.303038,0.45491 -0.0074,0.0614 -0.03713,0.38706 -0.06596,0.72365 l -0.05243,0.61199 h -1.691032 c -1.585745,0 -1.700866,0.01 -1.848964,0.15793 -0.212944,0.21295 -0.199437,0.52232 0.03205,0.73421 0.104493,0.0956 0.735235,0.37984 1.401647,0.63154 1.285969,0.4857 1.692651,0.71606 2.049966,1.16116 0.304173,0.37891 0.496529,1.166 0.43371,1.77467 -0.100877,0.97746 -0.334809,1.403 -0.941393,1.71245 -0.657501,0.33543 -2.215868,0.46267 -3.647197,0.29779 z m -13.542675,-3.23214 v -3.23761 h -1.184491 -1.18449 v -0.86863 -0.86862 h 3.474506 3.474505 v 0.86862 0.86863 h -1.18449 -1.184491 v 3.23761 3.23761 h -1.105524 -1.105525 z m 5.465326,-0.30201 0.02281,-3.53961 0.215388,-0.32536 c 0.118463,-0.17895 0.383658,-0.42397 0.589322,-0.5445 0.344264,-0.20175 0.452486,-0.22151 1.363932,-0.24905 0.863454,-0.0261 3.452418,0.0923 3.521121,0.16097 0.01365,0.0136 0.0042,0.37067 -0.02104,0.79338 l -0.04585,0.76857 h -1.594963 c -1.936442,0 -1.856339,-0.042 -1.856339,0.97355 v 0.68474 h 1.500355 1.500355 v 0.75017 0.75018 h -1.500355 -1.500355 v 1.65829 1.65829 h -1.108595 -1.108596 z m -9.17673,-7.00235 v -1.53984 H 13.098767 9.9401255 v 1.53984 1.53984 h 3.1586415 3.158641 z m 7.58074,0 v -1.53984 h -3.198125 -3.198124 v 1.53984 1.53984 h 3.198124 3.198125 z m 7.501773,0 v -1.53984 H 28.18128 25.022638 v 1.53984 1.53984 h 3.158642 3.158641 z m 7.501774,0 v -1.53984 h -3.158642 -3.158641 v 1.53984 1.53984 h 3.158641 3.158642 z"
       style="fill:#606060;fill-opacity:1;stroke-width:0.07896603" />
    <path
       inkscape:connector-curvature="0"
       id="path132"
       d="M 8.8854794,130.21454 C 8.7638947,130.08019 8.7555054,129.25929 8.7745339,119.3585 l 0.020584,-10.71071 0.2189516,-0.21894 0.2189507,-0.21894 H 24.39091 39.5488 l 0.218951,0.21895 0.218951,0.21895 v 10.70508 10.70508 l -0.186421,0.15096 c -0.182116,0.14747 -0.539768,0.15095 -15.484847,0.15095 -14.7563157,0 -15.3030845,-0.005 -15.4299546,-0.14534 z m 7.3719286,-2.5395 v -1.50036 H 13.098767 9.9401255 v 1.50036 1.50035 h 3.1586415 3.158641 z m 7.58074,0 v -1.50036 h -3.198125 -3.198124 v 1.50036 1.50035 h 3.198124 3.198125 z m 7.501773,0 v -1.50036 H 28.18128 25.022638 v 1.50036 1.50035 h 3.158642 3.158641 z m 7.501774,0 v -1.50036 h -3.158642 -3.158641 v 1.50036 1.50035 h 3.158641 3.158642 z m -24.367589,-2.11557 0.388264,-0.17722 0.169587,0.15932 c 0.152107,0.14289 0.275293,0.15932 1.195006,0.15932 1.130468,0 1.214936,-0.0313 1.214936,-0.45011 v -0.26059 h 1.026558 1.026559 v 0.26059 c 0,0.43254 0.0601,0.45011 1.539838,0.45011 1.479741,0 1.539837,-0.0176 1.539837,-0.45011 v -0.26059 h 1.184491 1.18449 v 0.26059 c 0,0.43254 0.0601,0.45011 1.539838,0.45011 1.479741,0 1.539838,-0.0176 1.539838,-0.45011 v -0.26059 H 29.7606 c 1.677857,0 1.737253,0.005 1.737253,0.15611 0,0.43369 0.909568,0.59439 3.356057,0.59295 1.779436,-0.001 1.922122,-0.0119 2.336233,-0.17847 0.242576,-0.0976 0.524165,-0.26585 0.625751,-0.37398 0.151973,-0.16177 0.259228,-0.19661 0.605252,-0.19661 h 0.420549 v -1.57932 -1.57932 h -0.195388 c -0.141318,0 -0.231102,-0.071 -0.32445,-0.25664 -0.07099,-0.14115 -0.274737,-0.40766 -0.452783,-0.59224 l -0.323719,-0.33561 h 0.64817 0.64817 v -1.57932 -1.57932 h -0.276381 c -0.241477,0 -0.276382,-0.0247 -0.276382,-0.1956 0,-0.27967 -0.250255,-0.41011 -1.056657,-0.55073 -0.834253,-0.14549 -3.378337,-0.16753 -4.013024,-0.0348 -0.584284,0.12221 -1.135591,0.43888 -1.407294,0.80834 l -0.23066,0.31365 0.04579,-0.38761 c 0.03913,-0.33119 0.0209,-0.41009 -0.125253,-0.54216 -0.160049,-0.14462 -0.324877,-0.15666 -2.564425,-0.18727 -2.674865,-0.0366 -2.75158,-0.0258 -3.308244,0.46421 -0.194909,0.17156 -0.42888,0.31194 -0.519935,0.31194 -0.139634,0 -0.165557,-0.048 -0.165557,-0.3062 0,-0.16841 -0.04849,-0.34643 -0.107747,-0.39561 -0.07765,-0.0644 -1.141486,-0.0837 -3.807795,-0.0689 l -3.700045,0.0205 -0.08708,0.17469 c -0.07523,0.15092 -0.102417,0.15946 -0.199733,0.0627 -0.333776,-0.33177 -3.754411,-0.49906 -4.77404,-0.23348 -0.548289,0.14281 -1.089653,0.3989 -1.274085,0.60269 -0.09657,0.10671 -0.245204,0.14355 -0.579243,0.14355 H 9.9645662 l -0.066146,1.44112 c -0.084058,1.83139 -0.084187,2.73833 -6.267e-4,4.58003 l 0.067154,1.48062 h 0.3501385 c 0.285276,0 0.409301,0.0506 0.669503,0.27336 0.51373,0.43974 0.820732,0.51399 2.03524,0.49223 0.911044,-0.0163 1.122493,-0.0449 1.454305,-0.19631 z m -2.232376,-0.25934 c -0.482374,-0.0948 -1.003718,-0.42171 -1.279224,-0.80203 -0.492992,-0.68056 -0.75811,-2.13906 -0.678486,-3.73259 0.07591,-1.51915 0.373067,-2.43614 0.95504,-2.94712 0.367474,-0.32265 0.610871,-0.44447 1.23148,-0.61636 0.673119,-0.18644 2.67141,-0.18751 3.581282,-0.002 0.342956,0.07 0.632327,0.13679 0.643048,0.14853 0.01072,0.0117 -0.01761,0.36581 -0.06296,0.78684 l -0.08245,0.76551 -1.601356,0.0241 c -1.479596,0.0223 -1.618289,0.0367 -1.824055,0.18918 -0.3244,0.2404 -0.439086,0.5349 -0.5289,1.35812 -0.09355,0.85748 0.01792,2.13883 0.220075,2.52976 0.07055,0.13644 0.232519,0.30197 0.359921,0.36785 0.273275,0.14132 0.896627,0.15543 1.389006,0.0314 l 0.350832,-0.0883 v -1.37244 -1.37253 h 1.066041 1.066042 v 2.36898 2.36899 H 16.22671 15.406355 l -0.05248,-0.29613 c -0.106208,-0.59927 -0.106983,-0.60004 -0.37714,-0.37272 -0.718838,0.60487 -1.754069,0.85579 -2.735006,0.66292 z m 21.360575,0.001 c -0.297502,-0.0345 -0.790767,-0.10748 -1.096145,-0.16205 l -0.555234,-0.0992 0.04985,-0.58966 c 0.02741,-0.32431 0.04984,-0.67314 0.04984,-0.77516 v -0.1855 h 1.776736 c 1.671448,0 1.786095,-0.009 1.934668,-0.15794 0.187957,-0.18795 0.202891,-0.45343 0.03869,-0.68785 -0.07428,-0.10606 -0.508509,-0.32194 -1.151775,-0.57261 -1.436886,-0.55995 -1.897605,-0.80849 -2.258282,-1.21824 -0.386766,-0.43939 -0.497972,-0.79734 -0.497972,-1.60288 0,-1.07814 0.342459,-1.69009 1.094245,-1.95534 0.551658,-0.19463 1.709705,-0.30392 2.637456,-0.2489 0.91993,0.0546 2.017714,0.23771 2.136446,0.35645 0.04347,0.0435 0.05072,0.35322 0.01757,0.75114 l -0.05641,0.67717 h -1.690681 c -1.585393,0 -1.700516,0.01 -1.848613,0.15793 -0.194723,0.19473 -0.202759,0.48087 -0.01974,0.70296 0.07955,0.0965 0.582534,0.33442 1.185245,0.56057 1.795229,0.67359 2.237908,0.96482 2.54965,1.67738 0.141253,0.32287 0.182395,0.56435 0.185094,1.08636 0.0057,1.09474 -0.293365,1.69276 -1.009541,2.01901 -0.679547,0.30956 -2.136649,0.42139 -3.4711,0.26639 z m -13.633493,-3.23302 v -3.23761 h -1.184491 -1.18449 v -0.86863 -0.86862 h 3.474506 3.474505 v 0.86862 0.86863 h -1.18449 -1.184491 v 3.23761 3.23761 h -1.105524 -1.105525 z m 5.448657,-0.12903 c 0,-3.73556 0.01068,-3.82995 0.48729,-4.30656 0.400983,-0.40099 0.906221,-0.5398 1.955247,-0.53721 0.817053,0.002 3.245987,0.13031 3.28471,0.1735 0.01078,0.012 9.62e-4,0.36832 -0.02181,0.79177 l -0.0414,0.76992 h -1.595805 c -1.937405,0 -1.857181,-0.042 -1.857181,0.97355 v 0.68474 h 1.500355 1.500354 v 0.75017 0.75018 H 29.128875 27.62852 v 1.65829 1.65829 h -1.105525 -1.105524 z m -9.160061,-7.17533 v -1.53984 H 13.098767 9.9401255 v 1.53984 1.53984 h 3.1586415 3.158641 z m 7.58074,0 v -1.53984 h -3.198125 -3.198124 v 1.53984 1.53984 h 3.198124 3.198125 z m 7.501773,0 v -1.53984 H 28.18128 25.022638 v 1.53984 1.53984 h 3.158642 3.158641 z m 7.501774,0 v -1.53984 h -3.158642 -3.158641 v 1.53984 1.53984 h 3.158641 3.158642 z"
       style="fill:#494949;fill-opacity:1;stroke-width:0.07896603" />
    <path
       inkscape:connector-curvature="0"
       id="path130"
       d="M 8.8854794,130.21454 C 8.7638947,130.08019 8.7555054,129.25929 8.7745339,119.3585 l 0.020584,-10.71071 0.2189516,-0.21894 0.2189507,-0.21894 H 24.39091 39.5488 l 0.218951,0.21894 0.218951,0.21894 0.02193,10.52044 c 0.01206,5.78624 0.0023,10.6013 -0.02175,10.70012 -0.02403,0.0988 -0.113849,0.24985 -0.199607,0.33561 -0.154181,0.15418 -0.32694,0.15592 -15.463095,0.15592 -14.7648121,0 -15.3118328,-0.005 -15.4387037,-0.14534 z m 7.3719286,-2.5395 v -1.50036 H 13.098767 9.9401255 v 1.50036 1.50035 h 3.1586415 3.158641 z m 7.58074,0 v -1.50036 h -3.198125 -3.198124 v 1.50036 1.50035 h 3.198124 3.198125 z m 7.501773,0 v -1.50036 H 28.18128 25.022638 v 1.50036 1.50035 h 3.158642 3.158641 z m 7.501774,0 v -1.50036 h -3.158642 -3.158641 v 1.50036 1.50035 h 3.158641 3.158642 z m -24.367589,-2.11557 0.388264,-0.17722 0.169587,0.15932 c 0.152107,0.14289 0.275293,0.15932 1.195006,0.15932 1.130468,0 1.214936,-0.0313 1.214936,-0.45011 v -0.26059 h 1.026558 1.026559 v 0.26059 c 0,0.43254 0.0601,0.45011 1.539838,0.45011 1.479741,0 1.539837,-0.0176 1.539837,-0.45011 v -0.26059 h 1.184491 1.18449 v 0.26059 c 0,0.43254 0.0601,0.45011 1.539838,0.45011 1.479741,0 1.539838,-0.0176 1.539838,-0.45011 v -0.26059 H 29.7606 c 1.677857,0 1.737253,0.005 1.737253,0.15611 0,0.43369 0.909568,0.59439 3.356057,0.59295 1.779436,-0.001 1.922122,-0.0119 2.336233,-0.17847 0.242576,-0.0976 0.524165,-0.26585 0.625751,-0.37398 0.151973,-0.16177 0.259228,-0.19661 0.605252,-0.19661 h 0.420549 v -1.57932 -1.57932 h -0.195388 c -0.141318,0 -0.231102,-0.071 -0.32445,-0.25664 -0.07099,-0.14115 -0.274737,-0.40766 -0.452783,-0.59224 l -0.323719,-0.33561 h 0.64817 0.64817 v -1.57932 -1.57932 h -0.276381 c -0.241477,0 -0.276382,-0.0247 -0.276382,-0.1956 0,-0.27967 -0.250255,-0.41011 -1.056657,-0.55073 -0.834253,-0.14549 -3.378337,-0.16753 -4.013024,-0.0348 -0.584284,0.12221 -1.135591,0.43888 -1.407294,0.80834 l -0.23066,0.31365 0.04579,-0.38761 c 0.03913,-0.33119 0.0209,-0.41009 -0.125253,-0.54216 -0.160049,-0.14462 -0.324877,-0.15666 -2.564425,-0.18727 -2.674865,-0.0366 -2.75158,-0.0258 -3.308244,0.46421 -0.194909,0.17156 -0.42888,0.31194 -0.519935,0.31194 -0.139634,0 -0.165557,-0.048 -0.165557,-0.3062 0,-0.16841 -0.04849,-0.34643 -0.107747,-0.39561 -0.07765,-0.0644 -1.141486,-0.0837 -3.807795,-0.0689 l -3.700045,0.0205 -0.08708,0.17469 c -0.07523,0.15092 -0.102417,0.15946 -0.199733,0.0627 -0.333776,-0.33177 -3.754411,-0.49906 -4.77404,-0.23348 -0.548289,0.14281 -1.089653,0.3989 -1.274085,0.60269 -0.09657,0.10671 -0.245204,0.14355 -0.579243,0.14355 H 9.9645662 l -0.066146,1.44112 c -0.084058,1.83139 -0.084187,2.73833 -6.267e-4,4.58003 l 0.067154,1.48062 h 0.3501385 c 0.285276,0 0.409301,0.0506 0.669503,0.27336 0.51373,0.43974 0.820732,0.51399 2.03524,0.49223 0.911044,-0.0163 1.122493,-0.0449 1.454305,-0.19631 z m -2.322932,-0.29646 c -1.11588,-0.31176 -1.614623,-1.10034 -1.82066,-2.8787 -0.109813,-0.94782 -0.05502,-2.30855 0.123323,-3.06242 0.398601,-1.68494 1.395882,-2.27804 3.789937,-2.25393 0.906233,0.009 2.369149,0.1752 2.442631,0.2773 0.0098,0.0136 -0.01733,0.37117 -0.06025,0.79463 l -0.07804,0.76992 -1.507515,1.5e-4 c -1.641266,1.6e-4 -1.88923,0.0538 -2.190843,0.47368 -0.348273,0.48489 -0.401043,2.77688 -0.08061,3.50126 0.22464,0.50784 0.507866,0.63746 1.273284,0.58277 0.943899,-0.0675 0.872564,0.0573 0.872564,-1.52612 v -1.37346 h 1.066041 1.066042 v 2.36898 2.36899 h -0.829144 c -0.736848,0 -0.829192,-0.0154 -0.829584,-0.13819 -2.46e-4,-0.076 -0.0371,-0.27021 -0.08191,-0.43155 l -0.08147,-0.29335 -0.349686,0.26692 c -0.728939,0.55641 -1.877537,0.78963 -2.724097,0.55312 z m 21.557728,0.0484 c -0.325735,-0.0344 -0.854403,-0.10948 -1.174818,-0.16684 l -0.582574,-0.10428 0.04899,-0.51857 c 0.02695,-0.28521 0.04924,-0.63406 0.04955,-0.77521 l 5.6e-4,-0.25664 h 1.776736 c 1.671448,0 1.786094,-0.009 1.934667,-0.15794 0.208521,-0.20852 0.200239,-0.51775 -0.01974,-0.7371 -0.09772,-0.0974 -0.621858,-0.34966 -1.164749,-0.56048 -2.210545,-0.85844 -2.60044,-1.23531 -2.668593,-2.57951 -0.08073,-1.59219 0.451181,-2.17427 2.162837,-2.36683 1.140087,-0.12826 3.441276,0.0668 3.68698,0.31247 0.04103,0.041 0.04761,0.36353 0.01532,0.75115 l -0.05658,0.67924 h -1.67086 c -1.854867,0 -2.021865,0.0388 -2.021865,0.46953 0,0.38112 0.223721,0.54198 1.331144,0.95717 1.796144,0.67338 2.230993,0.95956 2.540824,1.67214 0.353667,0.81339 0.201095,2.21383 -0.30177,2.76991 -0.195631,0.21633 -0.624415,0.41556 -1.12225,0.52145 -0.571422,0.12154 -2.020117,0.1689 -2.763812,0.0903 z m -13.74009,-3.24293 v -3.23761 h -1.184491 -1.18449 v -0.86863 -0.86862 h 3.474506 3.474505 v 0.86862 0.86863 h -1.18449 -1.184491 v 3.23761 3.23761 h -1.105524 -1.105525 z m 5.448657,-0.18191 v -3.41952 l 0.20712,-0.41564 c 0.443283,-0.88955 0.96744,-1.0193 3.623527,-0.89696 1.028649,0.0474 1.880025,0.0975 1.891946,0.11136 0.01192,0.0139 -4.03e-4,0.3628 -0.02742,0.7754 l -0.0491,0.75018 -1.641566,0.0395 c -1.342928,0.0323 -1.655164,0.061 -1.716303,0.15793 -0.0411,0.0652 -0.07528,0.42938 -0.07594,0.8094 l -0.0012,0.69096 h 1.500354 1.500355 v 0.75017 0.75018 h -1.500355 -1.500354 v 1.65829 1.65829 h -1.105525 -1.105524 z m -9.160061,-7.12245 v -1.53984 H 13.098767 9.9401255 v 1.53984 1.53984 h 3.1586415 3.158641 z m 7.58074,0 v -1.53984 h -3.198125 -3.198124 v 1.53984 1.53984 h 3.198124 3.198125 z m 7.501773,0 v -1.53984 H 28.18128 25.022638 v 1.53984 1.53984 h 3.158642 3.158641 z m 7.501774,0 v -1.53984 h -3.158642 -3.158641 v 1.53984 1.53984 h 3.158641 3.158642 z"
       style="fill:#555555;fill-opacity:1;stroke-width:0.07896603" />
  </g>
</svg>
