<?xml version="1.0" encoding="UTF-8" standalone="no"?>
<!-- Created with Inkscape (http://www.inkscape.org/) -->

<svg
   xmlns:dc="http://purl.org/dc/elements/1.1/"
   xmlns:cc="http://creativecommons.org/ns#"
   xmlns:rdf="http://www.w3.org/1999/02/22-rdf-syntax-ns#"
   xmlns:svg="http://www.w3.org/2000/svg"
   xmlns="http://www.w3.org/2000/svg"
   xmlns:sodipodi="http://sodipodi.sourceforge.net/DTD/sodipodi-0.dtd"
   xmlns:inkscape="http://www.inkscape.org/namespaces/inkscape"
   width="32mm"
   height="32mm"
   viewBox="0 0 32 32"
   version="1.1"
   id="svg842"
   inkscape:version="0.92.5 (2060ec1f9f, 2020-04-08)"
   sodipodi:docname="pta3_2.svg">
  <defs
     id="defs836">
    <inkscape:path-effect
       effect="powerstroke"
       id="path-effect5586"
       is_visible="true"
       offset_points="0,0.13229166"
       sort_points="true"
       interpolator_type="CubicBezierJohan"
       interpolator_beta="0.2"
       start_linecap_type="zerowidth"
       linejoin_type="extrp_arc"
       miter_limit="4"
       end_linecap_type="zerowidth" />
    <inkscape:path-effect
       effect="powerstroke"
       id="path-effect5582"
       is_visible="true"
       offset_points="0,0.13229166"
       sort_points="true"
       interpolator_type="CubicBezierJohan"
       interpolator_beta="0.2"
       start_linecap_type="zerowidth"
       linejoin_type="extrp_arc"
       miter_limit="4"
       end_linecap_type="zerowidth" />
    <inkscape:path-effect
       effect="simplify"
       id="path-effect5578"
       is_visible="true"
       steps="1"
       threshold="0.00416667"
       smooth_angles="360"
       helper_size="0"
       simplify_individual_paths="false"
       simplify_just_coalesce="false"
       simplifyindividualpaths="false"
       simplifyJustCoalesce="false" />
    <inkscape:path-effect
       effect="simplify"
       id="path-effect1747"
       is_visible="true"
       steps="1"
       threshold="0.00416667"
       smooth_angles="360"
       helper_size="0"
       simplify_individual_paths="false"
       simplify_just_coalesce="false"
       simplifyindividualpaths="false"
       simplifyJustCoalesce="false" />
    <inkscape:path-effect
       effect="simplify"
       id="path-effect1714"
       is_visible="true"
       steps="1"
       threshold="0.00416667"
       smooth_angles="360"
       helper_size="0"
       simplify_individual_paths="false"
       simplify_just_coalesce="false"
       simplifyindividualpaths="false"
       simplifyJustCoalesce="false" />
    <inkscape:path-effect
       effect="simplify"
       id="path-effect1710"
       is_visible="true"
       steps="1"
       threshold="0.00416667"
       smooth_angles="360"
       helper_size="0"
       simplify_individual_paths="false"
       simplify_just_coalesce="false"
       simplifyindividualpaths="false"
       simplifyJustCoalesce="false" />
    <inkscape:path-effect
       effect="simplify"
       id="path-effect334-6"
       is_visible="true"
       steps="1"
       threshold="0.00416667"
       smooth_angles="360"
       helper_size="0"
       simplify_individual_paths="false"
       simplify_just_coalesce="false"
       simplifyindividualpaths="false"
       simplifyJustCoalesce="false" />
    <inkscape:path-effect
       effect="simplify"
       id="path-effect334-6-4"
       is_visible="true"
       steps="1"
       threshold="0.00416667"
       smooth_angles="360"
       helper_size="0"
       simplify_individual_paths="false"
       simplify_just_coalesce="false"
       simplifyindividualpaths="false"
       simplifyJustCoalesce="false" />
    <inkscape:path-effect
       effect="simplify"
       id="path-effect334-6-4-4"
       is_visible="true"
       steps="1"
       threshold="0.00416667"
       smooth_angles="360"
       helper_size="0"
       simplify_individual_paths="false"
       simplify_just_coalesce="false"
       simplifyindividualpaths="false"
       simplifyJustCoalesce="false" />
    <inkscape:path-effect
       effect="simplify"
       id="path-effect334-6-4-4-7"
       is_visible="true"
       steps="1"
       threshold="0.00416667"
       smooth_angles="360"
       helper_size="0"
       simplify_individual_paths="false"
       simplify_just_coalesce="false"
       simplifyindividualpaths="false"
       simplifyJustCoalesce="false" />
    <inkscape:path-effect
       effect="simplify"
       id="path-effect334-6-4-4-0-0"
       is_visible="true"
       steps="1"
       threshold="0.00416667"
       smooth_angles="360"
       helper_size="0"
       simplify_individual_paths="false"
       simplify_just_coalesce="false"
       simplifyindividualpaths="false"
       simplifyJustCoalesce="false" />
    <inkscape:path-effect
       effect="simplify"
       id="path-effect334-6-4-4-0-9"
       is_visible="true"
       steps="1"
       threshold="0.00416667"
       smooth_angles="360"
       helper_size="0"
       simplify_individual_paths="false"
       simplify_just_coalesce="false"
       simplifyindividualpaths="false"
       simplifyJustCoalesce="false" />
    <inkscape:path-effect
       effect="simplify"
       id="path-effect1714-3"
       is_visible="true"
       steps="1"
       threshold="0.00416667"
       smooth_angles="360"
       helper_size="0"
       simplify_individual_paths="false"
       simplify_just_coalesce="false"
       simplifyindividualpaths="false"
       simplifyJustCoalesce="false" />
    <inkscape:path-effect
       effect="simplify"
       id="path-effect1747-4"
       is_visible="true"
       steps="1"
       threshold="0.00416667"
       smooth_angles="360"
       helper_size="0"
       simplify_individual_paths="false"
       simplify_just_coalesce="false"
       simplifyindividualpaths="false"
       simplifyJustCoalesce="false" />
    <inkscape:path-effect
       effect="simplify"
       id="path-effect1747-47"
       is_visible="true"
       steps="1"
       threshold="0.00416667"
       smooth_angles="360"
       helper_size="0"
       simplify_individual_paths="false"
       simplify_just_coalesce="false"
       simplifyindividualpaths="false"
       simplifyJustCoalesce="false" />
    <inkscape:path-effect
       effect="simplify"
       id="path-effect1747-3"
       is_visible="true"
       steps="1"
       threshold="0.00416667"
       smooth_angles="360"
       helper_size="0"
       simplify_individual_paths="false"
       simplify_just_coalesce="false"
       simplifyindividualpaths="false"
       simplifyJustCoalesce="false" />
    <inkscape:path-effect
       effect="simplify"
       id="path-effect1747-4-1"
       is_visible="true"
       steps="1"
       threshold="0.00416667"
       smooth_angles="360"
       helper_size="0"
       simplify_individual_paths="false"
       simplify_just_coalesce="false"
       simplifyindividualpaths="false"
       simplifyJustCoalesce="false" />
    <inkscape:path-effect
       effect="simplify"
       id="path-effect1747-47-7"
       is_visible="true"
       steps="1"
       threshold="0.00416667"
       smooth_angles="360"
       helper_size="0"
       simplify_individual_paths="false"
       simplify_just_coalesce="false"
       simplifyindividualpaths="false"
       simplifyJustCoalesce="false" />
    <inkscape:path-effect
       effect="simplify"
       id="path-effect1747-7"
       is_visible="true"
       steps="1"
       threshold="0.00416667"
       smooth_angles="360"
       helper_size="0"
       simplify_individual_paths="false"
       simplify_just_coalesce="false"
       simplifyindividualpaths="false"
       simplifyJustCoalesce="false" />
    <inkscape:path-effect
       effect="simplify"
       id="path-effect1747-4-4"
       is_visible="true"
       steps="1"
       threshold="0.00416667"
       smooth_angles="360"
       helper_size="0"
       simplify_individual_paths="false"
       simplify_just_coalesce="false"
       simplifyindividualpaths="false"
       simplifyJustCoalesce="false" />
    <inkscape:path-effect
       effect="simplify"
       id="path-effect1747-47-1"
       is_visible="true"
       steps="1"
       threshold="0.00416667"
       smooth_angles="360"
       helper_size="0"
       simplify_individual_paths="false"
       simplify_just_coalesce="false"
       simplifyindividualpaths="false"
       simplifyJustCoalesce="false" />
    <inkscape:path-effect
       effect="simplify"
       id="path-effect334-6-4-8"
       is_visible="true"
       steps="1"
       threshold="0.00416667"
       smooth_angles="360"
       helper_size="0"
       simplify_individual_paths="false"
       simplify_just_coalesce="false"
       simplifyindividualpaths="false"
       simplifyJustCoalesce="false" />
    <inkscape:path-effect
       effect="simplify"
       id="path-effect334-6-4-8-4"
       is_visible="true"
       steps="1"
       threshold="0.00416667"
       smooth_angles="360"
       helper_size="0"
       simplify_individual_paths="false"
       simplify_just_coalesce="false"
       simplifyindividualpaths="false"
       simplifyJustCoalesce="false" />
    <inkscape:path-effect
       effect="simplify"
       id="path-effect334-6-3"
       is_visible="true"
       steps="1"
       threshold="0.00416667"
       smooth_angles="360"
       helper_size="0"
       simplify_individual_paths="false"
       simplify_just_coalesce="false"
       simplifyindividualpaths="false"
       simplifyJustCoalesce="false" />
    <inkscape:path-effect
       effect="simplify"
       id="path-effect1747-8"
       is_visible="true"
       steps="1"
       threshold="0.00416667"
       smooth_angles="360"
       helper_size="0"
       simplify_individual_paths="false"
       simplify_just_coalesce="false"
       simplifyindividualpaths="false"
       simplifyJustCoalesce="false" />
    <inkscape:path-effect
       effect="simplify"
       id="path-effect1747-4-6"
       is_visible="true"
       steps="1"
       threshold="0.00416667"
       smooth_angles="360"
       helper_size="0"
       simplify_individual_paths="false"
       simplify_just_coalesce="false"
       simplifyindividualpaths="false"
       simplifyJustCoalesce="false" />
    <inkscape:path-effect
       effect="simplify"
       id="path-effect1747-47-0"
       is_visible="true"
       steps="1"
       threshold="0.00416667"
       smooth_angles="360"
       helper_size="0"
       simplify_individual_paths="false"
       simplify_just_coalesce="false"
       simplifyindividualpaths="false"
       simplifyJustCoalesce="false" />
    <inkscape:path-effect
       effect="simplify"
       id="path-effect334-6-4-8-48"
       is_visible="true"
       steps="1"
       threshold="0.00416667"
       smooth_angles="360"
       helper_size="0"
       simplify_individual_paths="false"
       simplify_just_coalesce="false"
       simplifyindividualpaths="false"
       simplifyJustCoalesce="false" />
    <inkscape:path-effect
       effect="simplify"
       id="path-effect1747-7-8"
       is_visible="true"
       steps="1"
       threshold="0.00416667"
       smooth_angles="360"
       helper_size="0"
       simplify_individual_paths="false"
       simplify_just_coalesce="false"
       simplifyindividualpaths="false"
       simplifyJustCoalesce="false" />
    <inkscape:path-effect
       effect="simplify"
       id="path-effect1747-4-4-8"
       is_visible="true"
       steps="1"
       threshold="0.00416667"
       smooth_angles="360"
       helper_size="0"
       simplify_individual_paths="false"
       simplify_just_coalesce="false"
       simplifyindividualpaths="false"
       simplifyJustCoalesce="false" />
    <inkscape:path-effect
       effect="simplify"
       id="path-effect1747-47-1-9"
       is_visible="true"
       steps="1"
       threshold="0.00416667"
       smooth_angles="360"
       helper_size="0"
       simplify_individual_paths="false"
       simplify_just_coalesce="false"
       simplifyindividualpaths="false"
       simplifyJustCoalesce="false" />
    <inkscape:path-effect
       effect="simplify"
       id="path-effect334-6-4-8-4-7"
       is_visible="true"
       steps="1"
       threshold="0.00416667"
       smooth_angles="360"
       helper_size="0"
       simplify_individual_paths="false"
       simplify_just_coalesce="false"
       simplifyindividualpaths="false"
       simplifyJustCoalesce="false" />
  </defs>
  <sodipodi:namedview
     id="base"
     pagecolor="#ffffff"
     bordercolor="#666666"
     borderopacity="1.0"
     inkscape:pageopacity="0.0"
     inkscape:pageshadow="2"
     inkscape:zoom="2.98"
     inkscape:cx="47.337329"
     inkscape:cy="64.095658"
     inkscape:document-units="mm"
     inkscape:current-layer="layer1"
     showgrid="false"
     showguides="false"
     inkscape:window-width="1440"
     inkscape:window-height="822"
     inkscape:window-x="0"
     inkscape:window-y="27"
     inkscape:window-maximized="1"
     fit-margin-top="0"
     fit-margin-left="0"
     fit-margin-right="0"
     fit-margin-bottom="0">
    <inkscape:grid
       type="xygrid"
       id="grid1743"
       originx="-19.972915"
       originy="-181.33022" />
  </sodipodi:namedview>
  <metadata
     id="metadata839">
    <rdf:RDF>
      <cc:Work
         rdf:about="">
        <dc:format>image/svg+xml</dc:format>
        <dc:type
           rdf:resource="http://purl.org/dc/dcmitype/StillImage" />
        <dc:title></dc:title>
      </cc:Work>
    </rdf:RDF>
  </metadata>
  <g
     inkscape:label="Ebene 1"
     inkscape:groupmode="layer"
     id="layer1"
     transform="translate(-19.972915,-83.669778)">
    <g
       id="g4408"
       transform="matrix(1.3328768,0,0,1.3328768,-11.6229,-32.461798)">
      <g
         transform="translate(-2.6239669,0.04109119)"
         id="g1955">
        <path
           style="opacity:1;fill:#555555;fill-opacity:1;fill-rule:evenodd;stroke:#555555;stroke-width:1.12324941;stroke-linecap:round;stroke-linejoin:round;stroke-miterlimit:4;stroke-dasharray:none;stroke-dashoffset:0;stroke-opacity:1"
           id="path6245"
           sodipodi:type="arc"
           sodipodi:cx="31.177502"
           sodipodi:cy="-107.71869"
           sodipodi:rx="2.5635467"
           sodipodi:ry="1.9912806"
           sodipodi:start="0"
           sodipodi:end="3.167119"
           d="m 33.741048,-107.71869 a 2.5635467,1.9912806 0 0 1 -1.300709,1.73291 2.5635467,1.9912806 0 0 1 -2.582204,-0.0256 2.5635467,1.9912806 0 0 1 -1.243345,-1.75813 l 2.562712,0.0508 z"
           transform="matrix(0.99993624,0.01129186,0.01589519,-0.99987366,0,0)" />
        <rect
           style="opacity:1;fill:#666666;fill-opacity:1;fill-rule:evenodd;stroke:#555555;stroke-width:1.23664474;stroke-linecap:round;stroke-linejoin:round;stroke-miterlimit:4;stroke-dasharray:none;stroke-dashoffset:0;stroke-opacity:1"
           id="rect6249"
           width="0.021601487"
           height="10.976727"
           x="29.34132"
           y="94.738373"
           ry="0.030322453" />
        <path
           style="opacity:1;fill:#555555;fill-opacity:1;fill-rule:evenodd;stroke:#555555;stroke-width:1.91492856;stroke-linecap:round;stroke-linejoin:round;stroke-miterlimit:4;stroke-dasharray:none;stroke-dashoffset:0;stroke-opacity:1"
           id="path6253"
           sodipodi:type="arc"
           sodipodi:cx="29.367052"
           sodipodi:cy="92.831627"
           sodipodi:rx="1.9516271"
           sodipodi:ry="1.951623"
           sodipodi:start="0"
           sodipodi:end="6.2714956"
           d="m 31.318679,92.831627 a 1.9516271,1.951623 0 0 1 -1.945923,1.951615 1.9516271,1.951623 0 0 1 -1.957298,-1.940208 1.9516271,1.951623 0 0 1 1.934484,-1.962955 1.9516271,1.951623 0 0 1 1.968604,1.928735 l -1.951494,0.02281 z" />
      </g>
      <path
         id="path7782"
         d="m 37.921251,87.545709 c -0.350231,-0.0061 -0.700646,0.0067 -1.049073,0.01973 -0.668956,-0.03545 -1.360645,0.315531 -1.638491,0.919536 -0.296403,0.887174 -0.419341,1.818253 -0.587718,2.73395 -0.07953,0.627129 -0.296379,1.240828 -0.269689,1.877691 0.08727,0.578031 0.488144,1.071395 0.937127,1.441344 l 0.0034,0.0016 0.01866,0.0098 c 0.889089,0.24714 1.831777,0.218565 2.749474,0.205438 0.583714,-0.04878 1.201898,0.02683 1.750438,-0.212833 0.536293,-0.382966 0.95542,-0.983471 0.994798,-1.642672 -0.01641,-0.104556 -0.03643,-0.208629 -0.05344,-0.313085 0.03386,-0.269143 -0.03341,-0.565721 -0.100076,-0.817638 -0.11483,-0.503827 -0.21182,-1.012949 -0.318029,-1.52023 -0.06835,-0.356921 -0.135754,-0.714046 -0.205235,-1.070736 -0.03766,-0.329675 -0.159912,-0.663187 -0.357889,-0.939257 -0.01477,-0.03729 -0.0279,-0.07466 -0.04326,-0.111761 -0.06356,-0.07421 -0.113009,-0.106181 -0.152659,-0.113402 -0.174951,-0.17172 -0.386098,-0.306069 -0.634364,-0.37636 -0.344108,-0.06059 -0.693753,-0.08522 -1.043986,-0.09121 z m -2.328825,7.474609 -1.30265,1.262203 h 1.736866 l 0.868434,-1.262203 z m 2.605301,0 0.868432,1.262203 h 1.736868 l -1.30265,-1.262203 z"
         style="opacity:0.3;fill:none;stroke:#ffffff;stroke-width:0.85484475;stroke-linecap:round;stroke-linejoin:round;stroke-miterlimit:4;stroke-dasharray:none;stroke-opacity:1"
         inkscape:connector-curvature="0" />
      <rect
         style="visibility:hidden;fill:none;stroke:none;stroke-width:0.42742237"
         id="canvas"
         y="87.447105"
         x="32.118687"
         height="10.097623"
         width="10.421203" />
      <path
         id="path12"
         d="m 35.592426,95.020318 -1.30265,1.262203 h 1.736866 l 0.868434,-1.262203 z"
         style="fill:#555555;fill-opacity:1;stroke:none;stroke-width:0.42742237"
         inkscape:connector-curvature="0" />
      <path
         id="rect3226"
         d="m 38.197727,95.020318 0.868432,1.262203 h 1.736868 l -1.30265,-1.262203 z"
         style="fill:#555555;fill-opacity:1;stroke:none;stroke-width:0.42742237"
         inkscape:connector-curvature="0" />
      <path
         sodipodi:nodetypes="aaasaaa"
         inkscape:connector-curvature="0"
         id="rect1061"
         d="m 37.494525,88.24234 c 0.566668,-1.46e-4 1.278759,-0.05529 1.661214,0.349858 0.35371,0.374704 0.518031,1.110965 0.195928,1.511536 -0.363391,0.451919 -0.890505,0.210641 -1.760566,0.209282 -0.556315,-8.68e-4 -1.265541,0.194614 -1.601035,-0.213803 -0.337668,-0.41106 -0.213574,-1.175827 0.145077,-1.569845 0.306762,-0.337007 0.895617,-0.286908 1.359377,-0.287028 z"
         style="opacity:0.3;fill:none;fill-opacity:1;fill-rule:evenodd;stroke:#ffffff;stroke-width:0.80206984;stroke-linecap:round;stroke-linejoin:round;stroke-miterlimit:4;stroke-dasharray:none;stroke-dashoffset:0;stroke-opacity:1" />
      <path
         style="fill:none;fill-opacity:1;stroke:#555555;stroke-width:0.61349416;stroke-miterlimit:4;stroke-dasharray:none;stroke-opacity:1"
         d="m 35.613741,94.127108 c -0.391381,-0.322488 -0.740975,-0.752359 -0.817055,-1.256231 -0.02327,-0.555158 0.165676,-1.090449 0.235005,-1.637122 0.146784,-0.798216 0.253953,-1.609549 0.51233,-2.382906 0.2422,-0.526515 0.845381,-0.832069 1.428515,-0.801162 0.607453,-0.02265 1.224961,-0.04323 1.824884,0.06241 0.603327,0.170821 0.969602,0.763023 1.035835,1.342829 0.210152,1.078934 0.420193,2.158215 0.590314,3.243902 -0.03433,0.57463 -0.400274,1.098695 -0.867764,1.432533 -0.478166,0.208918 -1.016942,0.142582 -1.525769,0.185109 -0.799963,0.01149 -1.621822,0.03612 -2.396846,-0.179319 l -0.01608,-0.0082 -0.0034,-0.0018 z"
         id="path1091"
         inkscape:connector-curvature="0" />
      <path
         style="fill:#555555;fill-opacity:1;stroke:#555555;stroke-width:0.05881046;stroke-opacity:1"
         d="m 36.008093,88.366828 c -0.465644,0.314156 -0.477794,0.911368 -0.620526,1.39263 -0.187001,0.839618 -0.350228,1.685217 -0.528506,2.525816 -0.0016,0.447551 0.444821,0.713687 0.803857,0.90312 0.722161,0.315458 1.53696,0.28249 2.311432,0.283514 0.753916,-0.02596 1.586216,-0.07918 2.169027,-0.603454 0.353766,-0.286556 0.245205,-0.778511 0.145667,-1.154688 -0.242392,-1.06351 -0.384567,-2.158501 -0.805203,-3.175425 -0.239793,-0.279989 -0.276966,0.08293 -0.175122,0.257862 0.08519,0.379643 0.138938,0.766639 0.223775,1.144959 0.0417,0.402169 -0.404306,0.441079 -0.691635,0.324705 -0.930391,-0.104311 -1.881309,-0.111319 -2.803462,0.06373 -0.452847,-0.123889 -0.185117,-0.658425 -0.146816,-0.965125 0.04142,-0.321651 0.178033,-0.706374 0.117521,-0.997641 z m -0.267791,3.437405 c 0.434062,-0.0452 0.598998,0.662555 0.185452,0.800737 -0.37048,0.206147 -0.820852,-0.33432 -0.528951,-0.639704 0.08608,-0.09543 0.209108,-0.166608 0.343499,-0.161028 z m 3.756515,0.01182 c 0.434315,-0.04503 0.59906,0.663009 0.185454,0.801391 -0.370724,0.206133 -0.820845,-0.334575 -0.52913,-0.640125 0.08606,-0.09558 0.209181,-0.166859 0.343676,-0.161274 z"
         id="path1089"
         inkscape:connector-curvature="0" />
      <path
         style="opacity:1;fill:#555555;fill-opacity:1;fill-rule:evenodd;stroke:#555555;stroke-width:0.44039699;stroke-linecap:round;stroke-linejoin:round;stroke-miterlimit:4;stroke-dasharray:none;stroke-dashoffset:0;stroke-opacity:1"
         d="m 40.26432,92.892202 c -0.02915,0.606113 -0.619269,1.013714 -1.179092,1.152147 -1.035407,0.300567 -2.180894,0.285808 -3.192776,-0.09089 -0.416579,-0.18352 -0.795813,-0.51199 -0.918847,-0.951752 0.147473,-0.412985 0.691737,-0.04927 1.015697,-0.137757 0.943173,0.07264 1.890017,0.115553 2.835691,0.06668 0.479776,-0.0128 0.959551,-0.02562 1.439327,-0.03844 z"
         id="path1095"
         inkscape:connector-curvature="0" />
      <ellipse
         ry="0.52591789"
         rx="0.54277098"
         cy="92.195618"
         cx="35.746346"
         id="path1066"
         style="opacity:1;fill:#ffffff;fill-opacity:1;fill-rule:evenodd;stroke:none;stroke-width:0.94380951;stroke-linecap:round;stroke-linejoin:round;stroke-miterlimit:4;stroke-dasharray:none;stroke-dashoffset:0;stroke-opacity:1" />
      <ellipse
         ry="0.52591789"
         rx="0.54277098"
         cy="92.19558"
         cx="39.427277"
         id="path1066-9"
         style="opacity:1;fill:#ffffff;fill-opacity:1;fill-rule:evenodd;stroke:none;stroke-width:0.94380939;stroke-linecap:round;stroke-linejoin:round;stroke-miterlimit:4;stroke-dasharray:none;stroke-dashoffset:0;stroke-opacity:1" />
      <path
         style="color:#000000;display:inline;overflow:visible;visibility:visible;fill:#555555;fill-opacity:1;fill-rule:nonzero;stroke:none;stroke-width:0.89153367;marker:none;enable-background:accumulate"
         id="path8522-6-8"
         d="m 43.123719,95.609164 v 0.445767 h -0.891533 c -0.222883,0 -0.445767,0.222884 -0.445767,0.445767 v 5.794962 h 0.445767 v 0.89154 h 0.891533 v -0.89154 h 3.120369 v 0.89154 h 0.891533 v -0.89154 h 0.445767 v -5.794962 c 0,-0.222883 -0.222883,-0.445767 -0.445767,-0.445767 h -0.891533 v -0.445767 z m -0.445766,1.3373 h 4.011901 v 2.228835 h -4.011901 z m 0.445766,3.566136 c 0.246955,0 0.445767,0.19881 0.445767,0.44577 0,0.24695 -0.198812,0.44576 -0.445767,0.44576 -0.246954,0 -0.445766,-0.19881 -0.445766,-0.44576 0,-0.24696 0.198812,-0.44577 0.445766,-0.44577 z m 3.120369,0 c 0.246955,0 0.445766,0.19881 0.445766,0.44577 0,0.24695 -0.198811,0.44576 -0.445766,0.44576 -0.246956,0 -0.445767,-0.19881 -0.445767,-0.44576 0,-0.24696 0.198811,-0.44577 0.445767,-0.44577 z"
         inkscape:connector-curvature="0" />
      <path
         d="m 35.156149,102.1899 2.604178,1.42046 2.60418,-1.42046 z m 0.946974,1.89394 -1.420462,0.94698 v 5.20835 c 0,0.23675 0.236744,0.47349 0.473488,0.47349 h 1.183718 1.657204 1.183718 1.183718 c 0.236742,0 0.473486,-0.23674 0.473486,-0.47349 v -5.20835 l -1.420461,-0.94698 z m 0.473486,0.94698 h 2.367436 l 0.946974,0.47348 v 1.42046 h -4.261384 v -1.42046 z m -0.473486,3.78789 c 0.262312,0 0.473486,0.21118 0.473486,0.47349 0,0.26231 -0.211174,0.47348 -0.473486,0.47348 -0.262312,0 -0.473488,-0.21117 -0.473488,-0.47348 0,-0.26231 0.211176,-0.47349 0.473488,-0.47349 z m 3.314409,0 c 0.262312,0 0.473487,0.21118 0.473487,0.47349 0,0.26231 -0.211175,0.47348 -0.473487,0.47348 -0.262312,0 -0.473487,-0.21117 -0.473487,-0.47348 0,-0.26231 0.211175,-0.47349 0.473487,-0.47349 z"
         inkscape:connector-curvature="0"
         id="rect8366-0"
         style="color:#000000;display:inline;overflow:visible;visibility:visible;fill:#555555;fill-opacity:1;fill-rule:nonzero;stroke:none;stroke-width:0.94697416;marker:none;enable-background:accumulate" />
      <rect
         ry="0.17580983"
         y="89.073517"
         x="31.957739"
         height="20.471268"
         width="0.24581857"
         id="rect1957"
         style="opacity:1;fill:none;fill-opacity:1;fill-rule:evenodd;stroke:#555555;stroke-width:0.79414076;stroke-linecap:round;stroke-linejoin:round;stroke-miterlimit:4;stroke-dasharray:none;stroke-dashoffset:0;stroke-opacity:1;paint-order:normal" />
    </g>
  </g>
</svg>
